<svg width="32" height="32" viewBox="0 0 32 32" fill="none" xmlns="http://www.w3.org/2000/svg">
<g clip-path="url(#clip0)">
<path d="M21.3341 0.914368L19.467 6.09129C21.1905 11.779 21.1905 20.2209 19.467 25.9089L21.3341 31.0853C27.5476 28.8882 32 22.9655 32 15.9995C32 9.03455 27.5476 3.11155 21.3341 0.914368Z" fill="#E61E25"/>
<path d="M21.3342 6.09127V0.914352C19.6655 0.324254 17.8709 0.00012207 15.9998 0.00012207C18.467 0.00012207 15.0462 8.36168 21.3342 6.09127Z" fill="#E4E4E4"/>
<path d="M15.9999 31.9999C17.8708 31.9999 19.6656 31.6757 21.3342 31.0856V25.9092C15.1093 25.2879 15.9999 31.9999 15.9999 31.9999Z" fill="#E4E4E4"/>
<path d="M-6.10352e-05 15.9997C-6.10352e-05 22.989 4.48259 28.9273 10.7282 31.1067V0.893707C4.48259 3.07312 -6.10352e-05 9.01146 -6.10352e-05 15.9997Z" fill="#3757A6"/>
<path d="M21.3341 6.09128V25.9089C23.0577 20.2209 23.0577 11.7789 21.3341 6.09128Z" fill="#EF4F4E"/>
<path d="M21.334 25.9091V6.09127C20.2447 2.49536 18.4669 0.00012207 15.9997 0.00012207C14.152 0.00012207 12.3793 0.317431 10.7281 0.89368V31.1068C12.3793 31.6831 14.152 31.9999 15.9997 31.9999C18.4669 31.9999 20.2447 29.5046 21.334 25.9091Z" fill="#F3F4F5"/>
</g>
<defs>
<clipPath id="clip0">
<rect x="-6.10352e-05" width="32" height="32" fill="white"/>
</clipPath>
</defs>
</svg>
