<svg width="30" height="30" viewBox="0 0 30 30" fill="none" xmlns="http://www.w3.org/2000/svg">
<g clip-path="url(#clip0)">
<path d="M29.9337 16.403H0.067749V16.4034H29.9337V16.403Z" fill="#C42126"/>
<path d="M28.377 8.21445H1.62329V8.21489H28.377V8.21445Z" fill="#C42126"/>
<path d="M29.4398 10.9435H0.559326V10.944H29.4398V10.9435Z" fill="#C42126"/>
<path d="M6.44699 27.3199H23.5533L23.5542 27.3189H6.44604L6.44699 27.3199Z" fill="#C42126"/>
<path d="M15 0C14.7053 0 14.4131 0.0106402 14.1229 0.0272337H15.8772C15.5868 0.0106402 15.2946 0 15 0Z" fill="#C42126"/>
<path d="M29.9374 13.6732H0.0620117V13.6737H29.9374V13.6732Z" fill="#C42126"/>
<path d="M19.4333 5.48532H26.5959C25.7452 4.44961 24.7564 3.53278 23.6609 2.75662H18.2825C18.7275 3.53962 19.1103 4.46355 19.4333 5.48532Z" fill="#E7E7E7"/>
<path d="M18.2825 2.75664H23.661C21.4375 1.18095 18.768 0.194201 15.8771 0.0272522H15.4153C16.776 0.198508 17.4009 1.20552 18.2825 2.75664Z" fill="#DC3027"/>
<path d="M29.4407 10.9438C29.174 9.99263 28.8163 9.08004 28.3768 8.21509H20.1365C20.3034 9.09119 20.4352 10.0063 20.5327 10.9438H29.4407Z" fill="#E7E7E7"/>
<path d="M19.673 8.21464H28.3765C27.8806 7.2391 27.2847 6.32367 26.5959 5.4855H18.993C19.2611 6.33412 19.4888 7.24955 19.673 8.21464Z" fill="#DC3027"/>
<path d="M20.8483 16.4023H29.9324C29.9755 15.9407 29.9999 15.4729 29.9999 15.0002C29.9999 14.5528 29.9764 14.1111 29.9381 13.6734H20.8504C20.88 14.581 20.8795 15.4952 20.8483 16.4023Z" fill="#E7E7E7"/>
<path d="M29.9383 13.673C29.8561 12.7357 29.6872 11.8239 29.4407 10.9443H20.15C20.2433 11.8379 20.3049 12.7521 20.335 13.673H29.9383Z" fill="#DC3027"/>
<path d="M19.9797 21.8608H28.3375C28.7832 20.9968 29.1465 20.0836 29.4189 19.1317H20.3838C20.2843 20.0706 20.1493 20.9855 19.9797 21.8608Z" fill="#E7E7E7"/>
<path d="M29.4192 19.1315C29.671 18.2521 29.8458 17.3403 29.9327 16.4028H20.5653C20.5333 17.3244 20.4698 18.2384 20.3746 19.1315H29.4192Z" fill="#DC3027"/>
<path d="M23.5541 27.3189C24.6654 26.5459 25.6682 25.6281 26.5324 24.5902H19.4947C19.1657 25.6163 18.7751 26.5387 18.322 27.3189H23.5541Z" fill="#E7E7E7"/>
<path d="M19.2299 24.59H26.5324C27.2292 23.7528 27.8341 22.8374 28.3374 21.8609H19.9184C19.7315 22.8267 19.5016 23.7426 19.2299 24.59Z" fill="#DC3027"/>
<path d="M14.4563 29.9893C14.426 29.9884 14.3957 29.987 14.3654 29.9861C14.3957 29.9869 14.426 29.9884 14.4563 29.9893Z" fill="#DC3027"/>
<path d="M14.9999 30C18.18 30 21.1265 29.0074 23.5532 27.3199H18.1245C17.161 28.9799 16.5253 30 14.9999 30Z" fill="#DC3027"/>
<path d="M14.9998 30C14.8177 30 14.6367 29.9957 14.4563 29.9893C14.6386 29.9955 14.8198 30 14.9998 30Z" fill="#C42126"/>
<path d="M18.7792 2.75662H6.33928C5.24366 3.53278 4.25508 4.44955 3.40405 5.48532H19.9298C19.6067 4.46355 19.2243 3.53962 18.7792 2.75662Z" fill="#F3F4F5"/>
<path d="M6.33923 2.75664H18.7792C17.8974 1.20552 16.776 0.198508 15.4153 0.0272522H14.1228C11.2319 0.194201 8.56246 1.18095 6.33923 2.75664Z" fill="#E73625"/>
<path d="M0.55957 10.9438H21.0058C20.9082 10.0061 20.7765 9.09119 20.6096 8.21509H1.62346C1.18386 9.08011 0.826271 9.99263 0.55957 10.9438Z" fill="#F3F4F5"/>
<path d="M3.40411 5.48532C2.71585 6.32349 2.1195 7.23886 1.62378 8.21446H20.6096C20.4256 7.24956 20.198 6.33419 19.9299 5.48532C19.9299 5.48532 3.40411 5.48532 3.40411 5.48532Z" fill="#E73625"/>
<path d="M0.00012207 15.0002C0.00012207 15.4729 0.0247591 15.9407 0.0676364 16.4023H21.1891C21.2203 15.4952 21.2208 14.5812 21.1912 13.6736H0.0619363C0.0235558 14.1111 0.00012207 14.5528 0.00012207 15.0002Z" fill="#F3F4F5"/>
<path d="M0.0620117 13.673H21.191C21.1609 12.7519 21.0991 11.8379 21.006 10.9443H0.559376C0.312816 11.8241 0.143966 12.7357 0.0620117 13.673Z" fill="#E73625"/>
<path d="M20.9984 19.1315H0.581055C0.853455 20.0836 1.21699 20.9967 1.66249 21.8607H20.5943C20.7639 20.9855 20.8986 20.0706 20.9984 19.1315Z" fill="#F3F4F5"/>
<path d="M0.581078 19.1315H20.9984C21.0934 18.2384 21.1571 17.3242 21.189 16.4028H0.067627C0.154522 17.3405 0.329578 18.2521 0.581078 19.1315Z" fill="#E73625"/>
<path d="M6.44607 27.3189H18.7335C19.1866 26.5385 19.5774 25.6163 19.9061 24.5902H3.46777C4.33203 25.6281 5.33455 26.5459 6.44607 27.3189Z" fill="#F3F4F5"/>
<path d="M1.66272 21.8608C2.16604 22.8373 2.77088 23.7528 3.46768 24.59H19.906C20.1775 23.7426 20.4075 22.8267 20.5943 21.8608H1.66272Z" fill="#E73625"/>
<path d="M14.3654 29.986C14.3957 29.987 14.426 29.9883 14.4563 29.9893C14.6368 29.9957 14.8178 29.9999 14.9999 29.9999C16.5254 29.9999 17.7693 28.9799 18.733 27.3198H6.44702C8.71103 28.8944 11.4286 29.8636 14.3654 29.986Z" fill="#E73625"/>
<path d="M14.6898 0.0078125C7.00313 0.164185 0.7381 6.09918 0.0638428 13.6486H14.6901V0.0078125H14.6898Z" fill="#283991"/>
<path d="M3.00142 8.49866L3.22993 9.2023H3.97031L3.37136 9.63741L3.60012 10.3416L3.00142 9.9062L2.40291 10.3416L2.63123 9.63741L2.03247 9.2023H2.77285L3.00142 8.49866Z" fill="#EFEFEF"/>
<path d="M3.00142 10.9846L3.22993 11.6887H3.97031L3.37136 12.1238L3.60012 12.8279L3.00142 12.3926L2.40291 12.8279L2.63123 12.1238L2.03247 11.6887H2.77285L3.00142 10.9846Z" fill="#EFEFEF"/>
<path d="M5.48788 4.76883L5.71645 5.47273H6.45658L5.85782 5.90809L6.08639 6.61173L5.48788 6.17688L4.88912 6.61173L5.11769 5.90809L4.51868 5.47273H5.25905L5.48788 4.76883Z" fill="#EFEFEF"/>
<path d="M5.48788 7.25522L5.71645 7.95912H6.45658L5.85782 8.39397L6.08639 9.09812L5.48788 8.66327L4.88912 9.09812L5.11769 8.39397L4.51868 7.95912H5.25905L5.48788 7.25522Z" fill="#EFEFEF"/>
<path d="M5.48788 9.74158L5.71645 10.4457H6.45658L5.85782 10.8803L6.08639 11.5845L5.48788 11.1492L4.88912 11.5845L5.11769 10.8803L4.51868 10.4457H5.25905L5.48788 9.74158Z" fill="#EFEFEF"/>
<path d="M1.11378 11.5845L0.885015 10.8804L1.48378 10.4455H0.743843L0.72725 10.3941C0.645992 10.6454 0.572587 10.8998 0.504883 11.157L0.515333 11.1492L1.11378 11.5845Z" fill="#EFEFEF"/>
<path d="M2.40301 7.85518L3.00152 7.41988L3.60028 7.85518L3.37152 7.15103L3.97028 6.71573H3.22991L3.00133 6.01208L2.77276 6.71573H2.49991C2.44925 6.79249 2.40023 6.8697 2.35095 6.9476L2.6314 7.15103L2.40301 7.85518Z" fill="#EFEFEF"/>
<path d="M5.48782 3.69051L6.08633 4.12536L5.85775 3.42172L6.45626 2.98642H6.02876C5.66566 3.25787 5.31536 3.54516 4.9788 3.84827L4.88855 4.12536L5.48782 3.69051Z" fill="#EFEFEF"/>
<path d="M7.37549 2.8824L7.97425 2.44711L8.57276 2.8824L8.34419 2.17825L8.9427 1.7434H8.20257L8.17154 1.64865C7.92073 1.77678 7.67253 1.91009 7.42996 2.05196L7.60381 2.17819L7.37549 2.8824Z" fill="#EFEFEF"/>
<path d="M7.97415 3.52591L8.20272 4.22936H8.94285L8.34408 4.66466L8.57266 5.36881L7.97415 4.93345L7.37539 5.36881L7.60396 4.66466L7.005 4.22936H7.74532L7.97415 3.52591Z" fill="#EFEFEF"/>
<path d="M7.97415 6.0123L8.20272 6.71575H8.94285L8.34408 7.15105L8.57266 7.8552L7.97415 7.41984L7.37539 7.8552L7.60396 7.15105L7.005 6.71575H7.74532L7.97415 6.0123Z" fill="#EFEFEF"/>
<path d="M7.97415 8.49866L8.20272 9.2023H8.94285L8.34408 9.63741L8.57266 10.3416L7.97415 9.9062L7.37539 10.3416L7.60396 9.63741L7.005 9.2023H7.74532L7.97415 8.49866Z" fill="#EFEFEF"/>
<path d="M7.97415 10.9846L8.20272 11.6887H8.94285L8.34408 12.1238L8.57266 12.8279L7.97415 12.3926L7.37539 12.8279L7.60396 12.1238L7.005 11.6887H7.74532L7.97415 10.9846Z" fill="#EFEFEF"/>
<path d="M10.4606 2.28244L10.6892 2.98634H11.4293L10.8308 3.4217L11.0591 4.12534L10.4606 3.69049L9.86164 4.12534L10.0904 3.4217L9.49146 2.98634H10.2318L10.4606 2.28244Z" fill="#EFEFEF"/>
<path d="M10.4606 4.76883L10.6892 5.47273H11.4293L10.8308 5.90809L11.0591 6.61173L10.4606 6.17688L9.86164 6.61173L10.0904 5.90809L9.49146 5.47273H10.2318L10.4606 4.76883Z" fill="#EFEFEF"/>
<path d="M10.4606 7.25522L10.6892 7.95912H11.4293L10.8308 8.39397L11.0591 9.09812L10.4606 8.66327L9.86164 9.09812L10.0904 8.39397L9.49146 7.95912H10.2318L10.4606 7.25522Z" fill="#EFEFEF"/>
<path d="M10.4606 9.74158L10.6892 10.4457H11.4293L10.8308 10.8803L11.0591 11.5845L10.4606 11.1492L9.86164 11.5845L10.0904 10.8803L9.49146 10.4457H10.2318L10.4606 9.74158Z" fill="#EFEFEF"/>
<path d="M12.9469 1.03952L13.1755 1.74342H13.9156L13.3169 2.17827L13.5454 2.88242L12.9469 2.44706L12.348 2.88242L12.5767 2.17827L11.9778 1.74342H12.7179L12.9469 1.03952Z" fill="#EFEFEF"/>
<path d="M12.9469 3.52591L13.1755 4.22936H13.9156L13.3169 4.66466L13.5454 5.36881L12.9469 4.93345L12.348 5.36881L12.5767 4.66466L11.9778 4.22936H12.7179L12.9469 3.52591Z" fill="#EFEFEF"/>
<path d="M12.9469 6.0123L13.1755 6.71575H13.9156L13.3169 7.15105L13.5454 7.8552L12.9469 7.41984L12.348 7.8552L12.5767 7.15105L11.9778 6.71575H12.7179L12.9469 6.0123Z" fill="#EFEFEF"/>
<path d="M12.9469 8.49866L13.1755 9.2023H13.9156L13.3169 9.63741L13.5454 10.3416L12.9469 9.9062L12.348 10.3416L12.5767 9.63741L11.9778 9.2023H12.7179L12.9469 8.49866Z" fill="#EFEFEF"/>
<path d="M12.9469 10.9846L13.1755 11.6887H13.9156L13.3169 12.1238L13.5454 12.8279L12.9469 12.3926L12.348 12.8279L12.5767 12.1238L11.9778 11.6887H12.7179L12.9469 10.9846Z" fill="#EFEFEF"/>
</g>
<defs>
<clipPath id="clip0">
<rect width="30" height="30" fill="white"/>
</clipPath>
</defs>
</svg>
