<svg width="100" height="100" viewBox="0 0 100 100" fill="none" xmlns="http://www.w3.org/2000/svg">
<circle cx="50" cy="50" r="50" transform="rotate(180 50 50)" fill="white"/>
<path d="M57.8502 37.376C60.0262 37.9307 61.6902 39.2107 62.8422 41.216C63.9942 43.264 64.5702 45.312 64.5702 47.36C64.5702 50.688 63.5889 53.6107 61.6263 56.128C59.6636 58.688 57.3383 60.5013 54.6503 61.568L53.2422 59.84L53.2422 59.008C54.7783 58.496 56.1436 57.3227 57.3383 55.488C58.5329 53.6533 59.1302 51.712 59.1302 49.664C59.1302 48 58.6822 46.5067 57.7862 45.184C56.8902 43.8613 55.8449 43.1147 54.6502 42.944L54.6502 41.6L57.8502 37.376ZM41.3382 37.376C43.5142 37.9307 45.1782 39.232 46.3302 41.28C47.4396 43.328 47.9942 45.3973 47.9942 47.488C47.9942 50.816 47.0342 53.7173 45.1142 56.192C43.1516 58.7093 40.8262 60.5013 38.1382 61.568L36.7302 59.84L36.7302 59.008C38.2662 58.5387 39.6316 57.3867 40.8262 55.552C41.9782 53.7173 42.5542 51.7547 42.5542 49.664C42.5542 48 42.1062 46.5067 41.2102 45.184C40.3142 43.8613 39.2689 43.1147 38.0742 42.944L38.0742 41.6L41.3382 37.376Z" fill="#C60C30"/>
</svg>
