<svg width="30" height="30" viewBox="0 0 30 30" fill="none" xmlns="http://www.w3.org/2000/svg">
<circle cx="14.9999" cy="15" r="15" fill="#333333"/>
<g clip-path="url(#clip0)">
<path fill-rule="evenodd" clip-rule="evenodd" d="M10.9705 13.776C11.0077 13.6577 11.0726 13.5678 11.1511 13.526C11.2296 13.4842 11.3153 13.4939 11.3893 13.553L14.9999 16.44L18.6099 13.552C18.6466 13.522 18.6867 13.5039 18.7278 13.4988C18.769 13.4937 18.8103 13.5016 18.8495 13.5222C18.8887 13.5427 18.9249 13.5755 18.9562 13.6186C18.9874 13.6617 19.013 13.7143 19.0315 13.7733C19.0499 13.8323 19.0609 13.8965 19.0638 13.9623C19.0667 14.0282 19.0614 14.0943 19.0483 14.1568C19.0351 14.2193 19.0143 14.2771 18.9872 14.3267C18.96 14.3764 18.9269 14.4169 18.8899 14.446L15.1399 17.446C15.0965 17.4808 15.0485 17.499 14.9999 17.499C14.9513 17.499 14.9034 17.4808 14.8599 17.446L11.1099 14.446C11.036 14.3866 10.9798 14.2827 10.9537 14.1571C10.9275 14.0315 10.9336 13.8945 10.9705 13.776Z" fill="white"/>
</g>
<defs>
<clipPath id="clip0">
<rect x="9.99988" y="7" width="10" height="16" fill="white"/>
</clipPath>
</defs>
</svg>
