<svg width="32" height="29" viewBox="0 0 32 29" fill="none" xmlns="http://www.w3.org/2000/svg">
<path d="M31.2258 5.94297C30.7293 4.78 30.0134 3.72613 29.1182 2.84035C28.2222 1.95193 27.1659 1.24591 26.0067 0.760694C24.8046 0.255555 23.5153 -0.0030044 22.2137 2.63381e-05C20.3875 2.63381e-05 18.6058 0.505889 17.0575 1.46141C16.6871 1.68998 16.3352 1.94104 16.0018 2.21458C15.6685 1.94104 15.3166 1.68998 14.9462 1.46141C13.3978 0.505889 11.6161 2.63381e-05 9.79001 2.63381e-05C8.47505 2.63381e-05 7.20082 0.254831 5.99698 0.760694C4.83389 1.24782 3.78562 1.94853 2.88552 2.84035C1.9891 3.72513 1.27303 4.77925 0.777867 5.94297C0.262993 7.1533 0 8.43856 0 9.7613C0 11.0091 0.251881 12.3093 0.751938 13.6321C1.1705 14.7375 1.77057 15.8841 2.53733 17.042C3.75228 18.8743 5.42284 20.7854 7.49716 22.7226C10.9346 25.9339 14.3387 28.1522 14.4831 28.2421L15.361 28.8117C15.75 29.0628 16.25 29.0628 16.6389 28.8117L17.5168 28.2421C17.6613 28.1485 21.0617 25.9339 24.5028 22.7226C26.5771 20.7854 28.2477 18.8743 29.4626 17.042C30.2294 15.8841 30.8332 14.7375 31.248 13.6321C31.7481 12.3093 32 11.0091 32 9.7613C32.0037 8.43856 31.7407 7.1533 31.2258 5.94297ZM16.0018 25.8477C16.0018 25.8477 2.81514 17.3005 2.81514 9.7613C2.81514 5.94297 5.93772 2.84784 9.79001 2.84784C12.4977 2.84784 14.8461 4.37667 16.0018 6.60996C17.1575 4.37667 19.5059 2.84784 22.2137 2.84784C26.066 2.84784 29.1885 5.94297 29.1885 9.7613C29.1885 17.3005 16.0018 25.8477 16.0018 25.8477Z" fill="#666666"/>
</svg>
