<svg width="22" height="22" viewBox="0 0 22 22" fill="none" xmlns="http://www.w3.org/2000/svg">
<path d="M11 0C8.00969 0 7.63702 0.0144393 6.46675 0.0639455C5.29166 0.121703 4.49681 0.303913 3.79547 0.576197C3.06145 0.853308 2.39669 1.28717 1.84754 1.84754C1.28561 2.39541 0.851504 3.06054 0.576197 3.79547C0.303913 4.49681 0.121703 5.29166 0.0639455 6.46675C0.0110014 7.6377 0 8.00969 0 11C0 13.9903 0.0144393 14.363 0.0639455 15.5333C0.121703 16.7049 0.303913 17.5032 0.576197 18.2045C0.853308 18.9385 1.28717 19.6033 1.84754 20.1525C2.39541 20.7144 3.06054 21.1485 3.79547 21.4238C4.49681 21.6926 5.2951 21.8783 6.46675 21.9361C7.63771 21.989 8.00969 22 11 22C13.9903 22 14.363 21.9856 15.5333 21.9361C16.7049 21.8783 17.5032 21.692 18.2045 21.4238C18.9386 21.1467 19.6033 20.7128 20.1525 20.1525C20.7151 19.6052 21.1493 18.9399 21.4238 18.2045C21.6926 17.5032 21.8783 16.7049 21.9361 15.5333C21.989 14.3623 22 13.9903 22 11C22 8.00969 21.9856 7.63702 21.9361 6.46675C21.8783 5.2951 21.692 4.49269 21.4238 3.79547C21.1467 3.06145 20.7128 2.39669 20.1525 1.84754C19.6052 1.28488 18.9399 0.850667 18.2045 0.576197C17.5032 0.303913 16.7049 0.121703 15.5333 0.0639455C14.3623 0.0110014 13.9903 0 11 0ZM11 1.98025C13.9367 1.98025 14.2873 1.99469 15.448 2.04419C16.5186 2.09439 17.1016 2.27316 17.4888 2.42443C17.9673 2.60108 18.4005 2.88226 18.7567 3.24747C19.1213 3.60214 19.4014 4.03431 19.5763 4.51194C19.7275 4.89905 19.9063 5.48212 19.9565 6.55269C20.006 7.71334 20.0204 8.0647 20.0204 11.0007C20.0204 13.9367 20.006 14.288 19.9524 15.4487C19.8946 16.5193 19.7158 17.1023 19.5653 17.4894C19.3569 18.0058 19.1245 18.3668 18.7408 18.7573C18.3835 19.1203 17.9506 19.4001 17.4729 19.5769C17.0906 19.7282 16.4993 19.907 15.4246 19.9572C14.2578 20.0067 13.914 20.0211 10.9697 20.0211C8.0255 20.0211 7.6824 20.0067 6.51419 19.9531C5.44362 19.8953 4.85298 19.7165 4.46587 19.5659C3.94331 19.3576 3.58507 19.1252 3.2014 18.7415C2.81429 18.3544 2.56813 17.9859 2.37836 17.4736C2.22434 17.0913 2.04832 16.5 1.99125 15.4253C1.95206 14.2722 1.93349 13.9147 1.93349 10.9842C1.93349 8.05507 1.95206 7.69684 1.99125 6.52932C2.04832 5.45462 2.22434 4.86467 2.37836 4.481C2.56813 3.95774 2.81498 3.6002 3.2014 3.21309C3.58439 2.8301 3.94331 2.58257 4.46587 2.38867C4.85298 2.23809 5.42918 2.05932 6.50388 2.00569C7.67071 1.96375 8.0145 1.94862 10.9546 1.94862L11 1.98025ZM11 5.35423C10.2583 5.35396 9.52388 5.49984 8.83861 5.78354C8.15335 6.06724 7.5307 6.4832 7.00626 7.00764C6.48182 7.53208 6.06587 8.15472 5.78217 8.83999C5.49847 9.52525 5.35259 10.2597 5.35286 11.0014C5.35259 11.743 5.49847 12.4775 5.78217 13.1628C6.06587 13.848 6.48182 14.4707 7.00626 14.9951C7.5307 15.5196 8.15335 15.9355 8.83861 16.2192C9.52388 16.5029 10.2583 16.6488 11 16.6485C11.7417 16.6488 12.4761 16.5029 13.1614 16.2192C13.8467 15.9355 14.4693 15.5196 14.9937 14.9951C15.5182 14.4707 15.9341 13.848 16.2178 13.1628C16.5015 12.4775 16.6474 11.743 16.6471 11.0014C16.6474 10.2597 16.5015 9.52525 16.2178 8.83999C15.9341 8.15472 15.5182 7.53208 14.9937 7.00764C14.4693 6.4832 13.8467 6.06724 13.1614 5.78354C12.4761 5.49984 11.7417 5.35396 11 5.35423ZM11 14.6683C8.973 14.6683 7.3331 13.0284 7.3331 11.0014C7.3331 8.97437 8.973 7.33448 11 7.33448C13.027 7.33448 14.6669 8.97437 14.6669 11.0014C14.6669 13.0284 13.027 14.6683 11 14.6683ZM18.1949 5.1287C18.1945 5.47914 18.0551 5.8151 17.8071 6.06277C17.5592 6.31044 17.2231 6.44956 16.8727 6.44956C16.6994 6.44956 16.5278 6.41543 16.3677 6.34912C16.2076 6.28281 16.0622 6.18562 15.9397 6.06309C15.8171 5.94057 15.7199 5.79511 15.6536 5.63502C15.5873 5.47493 15.5532 5.30336 15.5532 5.13008C15.5532 4.9568 15.5873 4.78522 15.6536 4.62514C15.7199 4.46505 15.8171 4.31959 15.9397 4.19707C16.0622 4.07454 16.2076 3.97735 16.3677 3.91104C16.5278 3.84473 16.6994 3.8106 16.8727 3.8106C17.5995 3.8106 18.1949 4.40193 18.1949 5.1287Z" fill="#CA1B3D"/>
</svg>
