<svg width="100" height="100" viewBox="0 0 100 100" fill="none" xmlns="http://www.w3.org/2000/svg">
<circle cx="50" cy="50" r="50" fill="white"/>
<path d="M42.1498 62.624C39.9738 62.0693 38.3098 60.7893 37.1578 58.784C36.0058 56.736 35.4298 54.688 35.4298 52.64C35.4298 49.312 36.4111 46.3893 38.3738 43.872C40.3364 41.312 42.6618 39.4987 45.3498 38.432L46.7578 40.16V40.992C45.2218 41.504 43.8564 42.6773 42.6618 44.512C41.4671 46.3467 40.8698 48.288 40.8698 50.336C40.8698 52 41.3178 53.4933 42.2138 54.816C43.1098 56.1387 44.1551 56.8853 45.3498 57.056V58.4L42.1498 62.624ZM58.6618 62.624C56.4858 62.0693 54.8218 60.768 53.6698 58.72C52.5604 56.672 52.0058 54.6027 52.0058 52.512C52.0058 49.184 52.9658 46.2827 54.8858 43.808C56.8484 41.2907 59.1738 39.4987 61.8618 38.432L63.2698 40.16V40.992C61.7338 41.4613 60.3684 42.6133 59.1738 44.448C58.0218 46.2827 57.4458 48.2453 57.4458 50.336C57.4458 52 57.8938 53.4933 58.7898 54.816C59.6858 56.1387 60.7311 56.8853 61.9258 57.056V58.4L58.6618 62.624Z" fill="#C60C30"/>
</svg>
