<svg width="22" height="18" viewBox="0 0 22 18" fill="none" xmlns="http://www.w3.org/2000/svg">
<path d="M22 2.13818C21.191 2.48965 20.3105 2.74261 19.4037 2.84113C20.3452 2.2778 21.0503 1.38782 21.3866 0.338176C20.5031 0.867496 19.5352 1.23866 18.5259 1.43522C18.104 0.981027 17.5938 0.6192 17.0271 0.372279C16.4603 0.125359 15.8491 -0.00136274 15.2316 1.10514e-05C12.7331 1.10514e-05 10.7237 2.03965 10.7237 4.54261C10.7237 4.89409 10.766 5.24557 10.8348 5.58374C7.09362 5.38669 3.757 3.5867 1.53876 0.83078C1.13457 1.52606 0.922762 2.31771 0.925369 3.12338C0.925369 4.69971 1.72119 6.08965 2.93474 6.90711C2.21958 6.87874 1.52116 6.68077 0.896287 6.3293V6.38521C0.896287 8.59261 2.44562 10.4219 4.51052 10.8426C4.12281 10.944 3.72397 10.9959 3.3234 10.997C3.02992 10.997 2.75231 10.9678 2.47206 10.9278C3.04314 12.7278 4.70616 14.0352 6.68646 14.0778C5.13712 15.3 3.19649 16.0189 1.08929 16.0189C0.711213 16.0189 0.362216 16.0056 0 15.963C1.9988 17.2544 4.37039 18 6.92441 18C15.2157 18 19.7527 11.0823 19.7527 5.07782C19.7527 4.88078 19.7527 4.68374 19.7395 4.48669C20.6172 3.83965 21.3866 3.03817 22 2.13818Z" fill="#CA1B3D"/>
</svg>
