<svg width="30" height="30" viewBox="0 0 30 30" fill="none" xmlns="http://www.w3.org/2000/svg">
<circle cx="14.9999" cy="15" r="15" transform="rotate(180 14.9999 15)" fill="#333333"/>
<g clip-path="url(#clip0)">
<path fill-rule="evenodd" clip-rule="evenodd" d="M19.0292 16.224C18.9921 16.3423 18.9271 16.4322 18.8486 16.474C18.7701 16.5158 18.6845 16.5061 18.6105 16.447L14.9998 13.56L11.3898 16.448C11.3531 16.478 11.313 16.4961 11.2719 16.5012C11.2308 16.5064 11.1895 16.4984 11.1503 16.4778C11.1111 16.4573 11.0748 16.4245 11.0436 16.3814C11.0124 16.3383 10.9868 16.2857 10.9683 16.2267C10.9498 16.1678 10.9388 16.1035 10.9359 16.0377C10.9331 15.9718 10.9383 15.9058 10.9515 15.8432C10.9647 15.7807 10.9854 15.7229 11.0126 15.6733C11.0398 15.6236 11.0728 15.5831 11.1098 15.554L14.8598 12.554C14.9033 12.5192 14.9512 12.501 14.9998 12.501C15.0484 12.501 15.0964 12.5192 15.1398 12.554L18.8898 15.554C18.9638 15.6134 19.02 15.7173 19.0461 15.8429C19.0722 15.9685 19.0661 16.1056 19.0292 16.224Z" fill="white"/>
</g>
<defs>
<clipPath id="clip0">
<rect x="19.9999" y="23" width="10" height="16" transform="rotate(180 19.9999 23)" fill="white"/>
</clipPath>
</defs>
</svg>
